<?xml version="1.0" standalone="no"?>
<!DOCTYPE svg PUBLIC "-//W3C//DTD SVG 20010904//EN"
 "http://www.w3.org/TR/2001/REC-SVG-20010904/DTD/svg10.dtd">
<svg version="1.0" xmlns="http://www.w3.org/2000/svg"
 width="1280.000000pt" height="912.000000pt" viewBox="0 0 1280.000000 912.000000"
 preserveAspectRatio="xMidYMid meet">
<metadata>
Created by potrace 1.15, written by Peter Selinger 2001-2017
</metadata>
<g transform="translate(0.000000,912.000000) scale(0.100000,-0.100000)"
fill="#000000" stroke="none">
<path d="M6730 9113 c-207 -11 -461 -45 -578 -79 -30 -8 -142 -56 -250 -106
-108 -50 -323 -139 -477 -200 -465 -181 -573 -230 -806 -363 -295 -170 -469
-306 -757 -590 -187 -185 -235 -227 -303 -265 -100 -56 -133 -98 -283 -355
-128 -219 -198 -316 -302 -415 -256 -244 -540 -419 -1104 -683 -550 -258 -644
-306 -855 -445 -158 -104 -329 -270 -506 -492 -247 -308 -276 -362 -343 -629
-31 -125 -56 -201 -77 -240 -89 -157 -84 -136 -83 -341 0 -151 4 -204 22 -287
115 -534 532 -948 1082 -1074 124 -29 332 -36 440 -15 101 19 193 53 261 97
48 31 159 142 159 159 0 5 -12 12 -27 16 -387 85 -614 251 -700 508 -24 73
-27 95 -27 231 -1 143 1 154 31 242 43 122 90 214 178 348 104 158 190 262
339 410 154 153 249 221 601 435 256 155 316 196 515 355 299 239 493 457 561
634 20 51 30 63 61 77 53 24 114 93 147 167 84 186 121 241 184 274 l30 15 -7
-54 c-4 -29 -27 -152 -52 -273 -65 -317 -102 -536 -109 -645 -10 -162 -6 -153
-84 -189 -38 -18 -141 -55 -228 -82 -293 -93 -423 -151 -423 -187 0 -10 7 -72
15 -137 56 -452 79 -851 72 -1275 -7 -463 -40 -750 -122 -1073 -19 -76 -35
-146 -35 -157 0 -26 44 -76 94 -105 62 -36 149 -52 371 -69 205 -16 238 -21
293 -50 27 -14 32 -22 32 -54 0 -60 -26 -151 -73 -263 -75 -176 -74 -169 -31
-229 56 -78 91 -181 134 -402 22 -111 40 -211 40 -223 0 -16 -18 -27 -83 -54
-252 -104 -532 -270 -712 -421 -89 -75 -245 -244 -245 -266 0 -22 97 -101 161
-132 102 -48 192 -62 493 -72 311 -11 303 -10 538 -56 229 -44 245 -44 283 2
27 32 44 39 170 75 127 36 147 39 216 34 72 -6 81 -4 141 25 35 17 104 63 154
101 268 210 282 218 424 259 53 15 110 35 127 43 43 23 86 76 77 96 -70 163
-95 286 -101 508 -4 143 -2 203 11 283 50 295 173 473 364 526 l62 17 0 202 0
202 63 60 c98 94 182 133 314 147 50 5 53 4 72 -27 11 -18 32 -68 47 -112 27
-75 28 -90 28 -245 0 -112 -7 -216 -22 -325 -28 -208 -38 -365 -24 -391 18
-34 102 -72 222 -99 63 -14 120 -31 126 -38 10 -12 23 -62 89 -363 89 -406
193 -613 364 -722 l55 -35 90 17 c395 73 814 73 1324 0 62 -9 115 -15 117 -13
23 24 47 419 34 582 -13 172 -28 219 -82 252 -23 14 -80 37 -127 51 -47 15
-112 36 -145 47 -76 27 -130 80 -142 139 -8 41 -8 43 17 49 14 4 97 7 185 8
327 3 464 30 537 108 34 36 48 73 48 129 0 55 -18 91 -65 132 -62 55 -171 98
-308 123 -58 10 -63 13 -79 48 -29 61 -81 114 -242 245 -158 129 -197 169
-237 246 -31 61 -31 146 0 217 25 57 36 63 124 63 70 0 147 -25 276 -89 142
-72 231 -101 305 -101 54 0 70 5 122 37 108 66 125 73 189 73 l62 0 27 -54
c15 -29 34 -91 42 -137 25 -137 10 -255 -82 -624 l-47 -190 -1 -180 c0 -214 8
-251 109 -493 37 -86 82 -202 101 -257 19 -55 40 -103 47 -107 27 -17 168 -59
252 -74 76 -14 152 -17 480 -15 435 2 539 -7 695 -59 47 -15 86 -27 86 -27 1
1 30 45 64 97 116 177 199 370 215 502 7 53 6 56 -22 75 -39 28 -115 66 -241
119 -210 90 -275 156 -303 310 -13 71 0 141 61 324 79 238 82 254 84 455 1
159 4 185 22 225 35 75 43 77 111 25 121 -91 229 -272 296 -495 19 -63 59
-217 88 -342 30 -125 57 -228 60 -228 9 0 18 69 25 195 18 322 -102 580 -441
950 -215 234 -199 214 -181 234 9 10 16 35 16 56 l0 38 105 -6 c491 -30 1076
-331 1748 -898 87 -74 172 -144 187 -157 l29 -24 -20 53 c-28 74 -72 161 -107
211 -45 65 -299 307 -378 359 -87 58 -578 328 -693 382 -47 21 -126 56 -176
75 -87 35 -96 36 -255 42 -169 7 -228 18 -271 51 l-24 19 45 37 c139 115 219
246 235 385 10 87 13 94 52 120 21 14 62 50 92 79 230 230 345 559 401 1149 6
63 16 120 22 127 6 8 74 62 152 120 235 179 337 297 393 454 l27 76 47 12
c105 27 184 103 198 189 l8 50 -46 7 c-165 23 -354 78 -651 188 -218 81 -373
131 -468 153 -72 16 -74 17 -119 77 -74 101 -146 264 -223 507 -171 538 -179
555 -344 728 -66 70 -161 174 -210 232 -212 248 -453 459 -761 666 -609 408
-1438 648 -2435 704 -160 9 -425 11 -560 3z m535 -198 c549 -42 964 -147 1348
-342 332 -169 578 -382 760 -658 73 -111 120 -202 111 -216 -9 -16 -69 -39
-98 -39 -14 0 -64 21 -112 46 -104 55 -130 55 -159 2 -13 -25 -27 -38 -40 -38
-45 1 -73 46 -95 155 -17 85 -27 100 -130 195 -218 202 -456 348 -758 467
-327 128 -657 203 -1132 255 -179 19 -824 16 -1029 -5 -90 -10 -166 -15 -169
-12 -12 12 55 66 104 85 29 11 119 29 199 40 81 12 167 28 193 36 129 38 671
54 1007 29z m1963 -350 c50 -25 66 -38 263 -205 263 -222 392 -354 508 -518
66 -95 154 -273 141 -286 -5 -5 -45 -11 -88 -14 -160 -9 -237 57 -373 320
-132 257 -231 374 -485 578 -71 56 -137 108 -146 114 -37 23 -16 33 75 35 43
1 69 -5 105 -24z m-2990 -110 c92 -21 98 -25 79 -62 -46 -88 -137 -137 -365
-198 -200 -54 -297 -99 -348 -159 -35 -43 -37 -44 -109 -48 -98 -6 -172 -43
-314 -157 -62 -51 -131 -101 -152 -111 -43 -22 -39 -14 -88 -220 -53 -221 -99
-451 -121 -595 -31 -198 -38 -539 -16 -691 30 -202 85 -353 180 -488 l41 -59
7 54 c16 128 29 402 43 935 8 313 18 596 21 629 12 112 107 207 360 359 82 49
174 107 204 128 l56 38 52 -20 c106 -40 198 -25 382 64 57 27 87 36 127 36 31
0 53 -4 53 -11 0 -31 -108 -120 -242 -199 -228 -135 -351 -275 -488 -555 -330
-675 -357 -1496 -68 -2007 37 -66 38 -69 38 -174 l0 -107 40 -53 c22 -30 72
-93 111 -141 76 -95 145 -201 136 -210 -13 -13 -97 -14 -133 -3 -49 17 -126
88 -169 159 -18 31 -64 121 -101 201 -121 261 -167 316 -264 314 -30 0 -63 -3
-73 -5 -14 -3 -23 12 -46 79 -51 147 -191 348 -290 418 -35 25 -46 43 -76 119
-160 415 -206 950 -119 1385 43 213 104 371 204 524 28 43 49 81 46 84 -15 14
-72 -1 -146 -40 -76 -40 -88 -43 -159 -43 -71 0 -76 2 -79 22 -5 32 44 127 98
192 95 114 204 176 515 291 121 45 298 117 393 161 298 136 437 177 610 178
60 1 131 -5 170 -14z m1577 -166 c43 -12 115 -76 115 -103 0 -11 -9 -16 -29
-16 -46 0 -187 -29 -275 -57 -185 -58 -498 -240 -711 -413 -334 -271 -614
-660 -732 -1020 -69 -208 -77 -269 -67 -525 13 -338 10 -508 -16 -695 -41
-304 -39 -763 5 -992 7 -39 9 -68 4 -68 -6 0 -24 6 -42 13 -87 37 -143 126
-172 278 -9 46 -22 117 -30 157 -9 48 -32 110 -65 174 l-50 100 0 180 c0 346
89 979 177 1263 46 149 286 588 449 822 193 276 315 398 559 555 161 103 570
332 623 348 40 12 211 12 257 -1z m363 -218 c22 -11 50 -33 62 -48 l21 -27
-108 -27 c-141 -35 -187 -53 -438 -169 -115 -53 -241 -110 -280 -125 -93 -37
-288 -86 -299 -75 -19 19 36 101 98 147 92 68 389 242 466 274 62 25 204 63
275 73 62 9 163 -3 203 -23z m412 -300 l0 -69 -52 -46 c-69 -61 -204 -126
-353 -171 -413 -125 -545 -177 -583 -232 -99 -140 -165 -191 -407 -314 -342
-174 -410 -238 -489 -456 -14 -40 -35 -91 -46 -113 -21 -42 -93 -120 -109
-120 -5 0 -19 12 -30 26 -40 51 -25 214 36 398 42 126 51 138 249 361 252 284
328 347 538 445 190 89 343 137 835 261 195 49 356 91 359 94 3 3 16 5 29 5
22 0 23 -3 23 -69z m1735 -22 c77 -36 159 -149 141 -194 -8 -22 -59 -18 -90 6
-42 33 -131 209 -106 209 6 0 31 -10 55 -21z m-6124 -105 c17 -15 16 -20 -13
-102 -82 -237 -272 -536 -477 -756 -52 -55 -73 -87 -95 -144 -84 -217 -263
-388 -497 -472 -45 -17 -83 -30 -84 -30 -1 0 10 24 26 54 42 85 46 148 14 252
-5 17 6 30 67 76 152 115 252 227 483 548 225 313 345 452 475 554 50 39 75
44 101 20z m5455 -353 c23 -10 56 -37 73 -58 34 -43 97 -83 128 -83 25 0 46
24 66 72 25 60 53 60 167 3 171 -87 288 -230 336 -410 8 -33 18 -112 21 -175
11 -235 -40 -462 -232 -1040 -112 -338 -180 -568 -170 -578 10 -10 79 35 118
77 90 97 132 200 227 563 47 177 78 271 129 393 105 247 110 275 96 575 -6
149 -5 184 9 230 24 84 27 86 77 71 88 -27 122 -93 122 -241 0 -164 -28 -294
-124 -580 -48 -146 -107 -341 -130 -435 -64 -263 -146 -522 -237 -745 l-38
-95 -55 -6 c-70 -8 -129 -38 -168 -88 -17 -22 -56 -92 -86 -156 -64 -135 -83
-165 -131 -202 l-35 -26 -36 34 c-49 47 -67 95 -103 270 -32 156 -44 189 -90
249 -67 86 -70 102 -80 460 -10 349 -12 368 -134 980 -41 206 -80 408 -87 448
-12 74 -13 74 -106 174 -106 113 -136 162 -131 216 l3 37 52 -1 c34 -1 83 -14
143 -38 81 -33 99 -37 168 -35 l77 2 3 -36 c3 -29 -3 -43 -32 -75 -50 -55 -53
-82 -18 -179 111 -304 227 -788 271 -1133 34 -268 36 -348 11 -495 -28 -170
-29 -267 -2 -327 20 -45 67 -90 110 -103 l22 -6 0 149 c0 82 8 268 17 413 23
365 23 894 0 1046 -22 144 -32 190 -63 288 -40 122 -110 249 -181 325 -57 61
-63 72 -63 110 0 24 -10 70 -22 102 -18 51 -19 61 -7 69 23 14 71 10 115 -10z
m-1146 -91 c109 -17 179 -59 283 -168 154 -162 232 -236 269 -256 34 -18 38
-26 81 -170 80 -265 98 -385 98 -628 0 -87 4 -171 9 -188 5 -17 29 -58 54 -91
44 -58 46 -64 46 -127 0 -82 14 -237 42 -482 25 -219 30 -522 9 -644 -13 -79
-14 -80 -76 -140 -80 -78 -120 -154 -116 -220 1 -19 136 -156 153 -156 5 0 28
18 52 40 80 73 116 199 116 403 0 139 1 142 60 112 48 -25 70 -75 101 -231 31
-158 56 -217 102 -241 26 -13 31 -13 46 1 29 26 68 106 107 217 48 140 77 197
118 240 37 37 111 77 123 65 18 -17 4 -188 -26 -336 -33 -160 -43 -318 -23
-385 7 -27 13 -30 53 -33 57 -3 106 22 132 68 17 32 18 50 13 185 -3 82 -1
192 4 245 6 52 17 176 25 275 25 294 50 364 208 581 110 152 136 194 177 294
42 103 81 253 135 530 25 129 58 279 72 333 23 86 28 97 48 97 28 0 71 -33 90
-69 12 -23 35 -161 35 -208 0 -8 13 -13 33 -13 55 0 152 -27 433 -120 267 -89
355 -109 474 -110 30 0 72 -5 94 -11 37 -10 86 -48 86 -67 0 -5 -66 -12 -147
-16 -731 -33 -1170 -250 -1224 -604 -6 -41 -8 -76 -6 -79 3 -3 45 30 94 72
233 204 455 343 659 413 138 47 213 62 432 87 l52 6 0 -33 c0 -49 -33 -159
-63 -210 -44 -76 -135 -150 -306 -249 -186 -107 -250 -155 -251 -185 0 -29 18
-42 68 -50 40 -6 42 -8 42 -43 0 -63 -28 -169 -62 -239 -43 -87 -153 -199
-273 -277 -233 -151 -284 -186 -332 -230 -54 -48 -123 -135 -123 -154 0 -19
101 -12 149 9 26 12 95 70 177 150 153 150 217 189 330 198 l65 5 -40 -111
c-95 -266 -194 -389 -371 -461 l-55 -23 -55 21 c-102 39 -160 26 -330 -72
-144 -84 -185 -96 -432 -136 -69 -11 -151 -30 -180 -41 -48 -18 -138 -74 -138
-86 0 -19 35 -79 66 -114 33 -36 172 -140 189 -140 3 0 5 12 5 26 0 17 -13 37
-40 61 -29 27 -40 44 -40 65 0 23 4 28 18 24 9 -3 37 -10 61 -16 23 -6 78 -27
121 -46 114 -50 165 -59 247 -46 93 15 133 47 215 167 113 164 152 195 244
195 l46 0 -7 -52 c-38 -274 -281 -478 -622 -520 -122 -15 -131 -22 -115 -82
16 -62 16 -106 -2 -106 -8 0 -54 -12 -102 -26 -108 -32 -166 -33 -204 -6 -15
12 -44 27 -64 36 -20 8 -36 21 -36 29 0 7 21 29 46 48 57 42 84 79 84 113 0
25 -3 26 -50 26 -55 0 -76 -9 -158 -64 -70 -47 -114 -58 -191 -48 -79 11 -101
32 -137 130 -15 42 -39 87 -52 99 -31 29 -75 30 -103 2 -27 -27 -21 -52 37
-141 55 -84 74 -127 74 -169 l0 -32 -96 7 c-207 15 -350 76 -425 179 -20 27
-29 52 -29 78 0 39 13 55 79 91 44 24 40 45 -11 58 -294 73 -464 145 -623 265
-159 120 -276 294 -331 493 -15 53 -15 64 -3 78 36 44 139 56 284 35 39 -6
110 -11 159 -11 l89 0 -45 53 c-105 122 -366 317 -426 317 -36 0 -42 -13 -42
-86 0 -67 -11 -74 -85 -50 -183 57 -269 255 -237 546 22 196 93 416 174 542
l40 62 -7 95 c-7 105 6 261 31 356 9 33 40 110 70 170 61 125 143 231 286 373
l94 93 90 -71 c290 -230 421 -424 431 -640 3 -52 1 -118 -5 -147 -14 -77 14
-115 125 -172 23 -11 44 -21 47 -21 2 0 10 31 16 69 16 84 8 263 -14 346 -23
86 -104 246 -178 350 -74 105 -293 330 -462 474 l-119 101 -39 -72 c-40 -73
-101 -158 -259 -358 -152 -194 -237 -340 -280 -485 -16 -55 -22 -115 -29 -275
-9 -237 -13 -254 -106 -451 -35 -74 -70 -162 -79 -194 -22 -87 -20 -269 5
-375 35 -144 129 -320 261 -486 l49 -62 0 -114 c0 -111 1 -116 31 -164 18 -27
93 -112 169 -189 114 -116 199 -226 200 -256 0 -8 -163 -29 -226 -29 -129 1
-285 60 -385 147 -30 27 -102 99 -158 160 -124 134 -196 193 -293 238 -65 30
-77 40 -114 97 -62 93 -108 180 -158 298 -177 416 -278 909 -263 1280 9 217
49 352 128 431 35 35 104 68 116 55 3 -3 1 -36 -6 -73 -19 -106 -25 -394 -12
-540 33 -346 131 -730 260 -1008 54 -118 96 -193 87 -155 -4 14 -24 144 -46
289 -46 307 -56 349 -155 651 -105 323 -139 509 -115 638 16 91 100 316 175
469 l64 131 108 78 c59 43 158 117 218 165 143 112 189 141 372 233 84 42 190
97 235 122 105 58 168 84 243 100 77 16 96 16 175 4z m-4833 -777 c6 -16 -49
-75 -109 -119 -27 -20 -93 -91 -146 -158 -108 -134 -200 -230 -268 -277 -57
-39 -143 -77 -194 -85 l-40 -7 6 34 c24 123 113 222 287 319 222 123 241 135
302 195 33 33 69 79 79 103 l19 42 30 -18 c17 -9 32 -22 34 -29z m712 -490
c50 -230 219 -623 355 -826 119 -178 283 -357 439 -481 71 -56 81 -59 247 -87
95 -16 143 -40 163 -82 9 -19 17 -40 17 -45 0 -28 -236 -26 -407 4 -182 31
-382 114 -560 230 -47 30 -158 108 -247 173 -88 65 -186 134 -216 154 l-55 37
-25 298 c-20 254 -22 312 -12 390 12 100 38 171 80 216 37 39 118 76 168 76
l41 0 12 -57z m-1867 -141 c-14 -82 -44 -127 -142 -209 -70 -58 -74 -65 -89
-126 -29 -113 -91 -181 -195 -212 l-46 -14 0 38 c0 151 131 354 360 558 l105
93 9 -31 c6 -21 6 -55 -2 -97z m-279 66 c9 -5 17 -15 17 -22 0 -23 -74 -128
-155 -221 -42 -49 -89 -106 -103 -127 -19 -29 -31 -38 -53 -38 -35 0 -54 26
-69 95 -6 27 -18 58 -27 68 -16 17 -12 23 68 103 94 94 140 130 196 150 38 13
91 10 126 -8z m387 -264 c0 -3 -29 -63 -65 -134 -70 -138 -131 -215 -199 -254
-40 -24 -124 -51 -132 -43 -9 8 39 152 73 224 70 143 157 213 266 213 31 0 57
-3 57 -6z m-1102 -76 c7 -7 12 -39 12 -75 l0 -64 45 -19 c54 -23 148 -109 165
-150 16 -39 2 -103 -46 -205 -20 -44 -41 -101 -47 -127 -10 -42 -15 -47 -45
-53 -46 -9 -102 21 -124 65 -23 44 -23 134 -2 196 12 34 13 49 4 58 -8 8 -23
-2 -60 -42 -37 -40 -55 -52 -77 -52 l-29 0 4 63 c5 78 -9 97 -71 97 -58 0
-117 18 -117 35 0 8 9 37 20 65 11 28 20 71 20 96 0 39 3 45 17 40 9 -4 51
-10 93 -13 86 -6 127 8 157 55 28 44 57 54 81 30z m-685 -570 c-3 -18 -26
-103 -51 -188 -124 -426 -142 -509 -142 -672 0 -127 22 -237 64 -323 19 -39
87 -135 151 -215 64 -80 130 -167 146 -195 28 -48 63 -144 55 -152 -7 -7 -108
38 -159 70 -29 19 -76 58 -105 88 -243 245 -348 684 -272 1137 24 142 101 331
177 434 34 47 36 48 89 48 l54 0 -7 -32z m2749 -78 c15 -29 18 -62 18 -183 l0
-148 -47 6 c-119 17 -202 53 -253 111 -42 48 -90 149 -83 175 13 50 108 79
248 76 l100 -2 17 -35z m-2566 -55 c-22 -59 -48 -165 -61 -250 -19 -128 -19
-259 1 -465 19 -200 32 -460 22 -460 -3 0 -20 12 -37 26 -36 30 -95 145 -116
229 -64 250 -33 653 70 898 15 36 16 37 71 37 46 0 55 -3 50 -15z m5424 -118
c39 -91 78 -134 137 -149 51 -12 57 -39 16 -65 -53 -32 -54 -39 -27 -112 70
-188 217 -435 388 -652 l91 -116 60 -7 c122 -14 214 -66 255 -145 l19 -37 -83
-38 c-117 -52 -169 -66 -251 -66 l-72 0 -129 133 c-229 234 -359 430 -434 655
-48 145 -63 249 -57 402 4 129 33 300 47 283 4 -4 21 -43 40 -86z m-5236 -23
c14 -35 18 -271 7 -344 -20 -129 -78 -220 -139 -220 -30 0 -52 108 -52 257 0
129 17 223 52 285 21 36 24 38 74 38 38 0 53 -4 58 -16z m202 -108 c16 -12 19
-26 18 -88 -1 -72 -23 -148 -43 -148 -5 0 -21 23 -35 52 -56 113 -16 239 60
184z m1910 -81 c141 -41 439 -95 994 -180 344 -53 374 -59 515 -108 l150 -52
135 1 c105 0 174 7 310 32 96 17 205 34 241 37 66 7 184 -6 235 -25 26 -10 26
-11 9 -30 -29 -32 -109 -79 -172 -101 -122 -43 -184 -50 -598 -59 -314 -6
-472 -15 -733 -39 -770 -71 -1042 -62 -1166 41 -41 34 -44 53 -16 108 11 22
20 55 20 75 l0 35 98 -4 c123 -6 199 -23 387 -84 83 -27 162 -52 178 -56 l27
-7 -15 38 c-39 92 -104 125 -332 164 -170 29 -239 52 -287 97 -46 43 -75 132
-43 132 7 0 36 -7 63 -15z m-2880 -157 c-3 -18 -9 -96 -12 -173 -10 -210 20
-363 103 -529 71 -143 120 -205 372 -471 83 -88 151 -163 151 -167 0 -4 -24 0
-52 8 -363 107 -597 394 -673 825 -18 100 -20 356 -4 464 l11 75 55 0 55 0 -6
-32z m5602 -383 c28 -9 63 -26 77 -38 l26 -22 -50 -150 c-66 -201 -78 -279
-58 -379 9 -42 27 -102 42 -133 14 -31 22 -59 18 -63 -14 -11 -184 -59 -288
-81 -330 -68 -586 -85 -1485 -99 -592 -9 -946 -24 -964 -41 -14 -13 42 -116
78 -144 109 -83 243 -105 528 -87 558 35 803 55 1234 103 287 31 353 45 556
114 168 57 267 79 333 72 57 -6 113 -30 121 -52 8 -19 -63 -121 -122 -175
-200 -186 -530 -293 -1099 -355 -201 -22 -821 -31 -1078 -16 -269 16 -764 64
-774 75 -2 2 1 39 6 83 6 44 15 170 21 279 11 201 26 368 36 410 5 18 17 25
57 33 101 21 285 51 492 81 1096 161 1135 170 1643 396 464 207 527 225 650
189z m-814 -42 c3 -10 6 -34 8 -53 l3 -34 -235 -53 c-774 -174 -1181 -234
-1580 -237 l-215 -1 0 60 c0 72 19 102 85 139 64 35 142 44 420 50 254 5 846
38 1030 57 145 14 314 45 380 67 71 25 97 26 104 5z m-4937 -396 c33 -36 82
-100 108 -143 161 -263 235 -350 350 -408 61 -30 151 -47 345 -65 165 -14 245
-48 306 -129 l28 -35 -110 6 c-436 26 -773 189 -961 467 -51 76 -112 205 -138
296 -14 47 -25 88 -25 90 0 13 44 -23 97 -79z m10463 65 c0 -26 -51 -103 -91
-136 -71 -61 -177 -88 -255 -67 -27 7 -55 25 -78 51 -57 63 -52 70 58 70 117
0 173 13 273 61 92 44 93 44 93 21z m-2370 -253 c80 -13 169 -51 205 -89 l26
-27 -98 -6 c-66 -3 -152 -18 -263 -46 -178 -44 -275 -52 -335 -27 -43 18 -83
79 -91 138 l-6 46 113 9 c159 14 372 15 449 2z m-1887 -60 c12 -6 56 -47 98
-92 92 -96 83 -96 272 -6 108 52 138 62 197 67 l70 5 0 -32 c0 -56 -24 -87
-85 -110 -31 -12 -60 -21 -66 -21 -24 0 -91 -43 -101 -65 -15 -33 20 -90 109
-178 l69 -67 59 15 c33 9 119 45 190 80 151 75 230 96 266 71 13 -9 31 -16 41
-16 23 0 22 -8 -1 -45 -20 -35 -67 -61 -191 -107 -56 -21 -97 -43 -120 -66
l-35 -35 25 -9 c14 -6 51 -8 82 -5 47 4 84 19 195 77 153 81 228 110 283 110
l37 0 -8 -47 c-14 -76 -63 -165 -121 -219 -29 -28 -100 -83 -158 -124 -58 -41
-124 -92 -147 -113 l-41 -38 -79 30 c-74 29 -246 128 -382 220 -44 30 -78 67
-133 143 -67 94 -82 108 -190 183 -197 135 -243 193 -243 305 0 88 6 100 50
100 20 0 46 -5 58 -11z m1013 -14 c67 -20 154 -83 200 -146 l38 -52 -36 -33
c-127 -116 -424 -28 -469 139 -17 64 -10 80 41 94 64 16 168 16 226 -2z m1193
-113 c24 -8 24 -9 -20 -51 -63 -60 -141 -110 -228 -145 -65 -26 -89 -30 -171
-30 -99 -1 -133 9 -190 54 l-25 20 35 31 c98 85 296 142 470 135 58 -3 116 -9
129 -14z m199 -207 c74 -23 182 -84 209 -117 11 -12 6 -20 -31 -46 -77 -55
-132 -74 -236 -79 -111 -6 -200 6 -362 49 l-117 30 13 27 c37 71 139 140 238
161 67 14 198 3 286 -25z m943 -95 c19 -6 46 -21 59 -36 23 -23 23 -27 10 -52
-9 -16 -40 -39 -75 -57 -51 -26 -71 -30 -140 -30 -95 0 -166 28 -191 77 -28
54 -17 71 56 90 73 19 226 23 281 8z m699 -51 c32 -12 32 -12 27 -67 -10 -98
-73 -161 -197 -196 -30 -9 -131 -25 -224 -36 -203 -25 -256 -37 -256 -58 0
-33 86 -99 181 -138 52 -21 113 -54 136 -71 50 -38 45 -37 110 -18 39 12 71
34 141 99 96 88 146 117 156 89 13 -33 5 -118 -15 -160 -27 -56 -110 -131
-195 -175 -70 -36 -292 -123 -299 -117 -2 2 -23 32 -48 65 -53 72 -127 127
-287 214 -162 88 -215 124 -275 183 -52 53 -99 136 -111 196 l-7 34 74 -6 c47
-3 104 -17 159 -37 149 -57 242 -39 512 96 84 42 176 85 203 95 58 20 167 24
215 8z m-3803 -415 c78 -37 146 -119 236 -285 43 -79 87 -155 98 -168 l20 -25
77 24 c118 35 127 36 172 6 l40 -27 58 39 c92 63 154 124 299 296 75 88 139
165 144 170 4 5 21 -5 38 -22 37 -36 38 -55 14 -198 l-17 -101 -53 -16 c-29
-9 -93 -42 -143 -74 l-90 -56 22 -25 c32 -34 61 -47 169 -77 116 -33 171 -64
193 -109 18 -39 22 -131 5 -142 -7 -4 -32 15 -60 43 l-49 50 -82 7 c-154 12
-383 -21 -518 -74 -77 -30 -220 -102 -220 -110 0 -4 18 -15 40 -25 65 -29 167
-22 380 26 236 53 354 58 440 18 30 -14 70 -41 89 -59 l33 -34 -28 -23 c-64
-51 -91 -58 -209 -54 -241 9 -295 6 -380 -22 -277 -92 -428 -305 -438 -615 -2
-83 -2 -83 -27 -77 -14 3 -37 19 -52 36 -30 31 -31 38 -28 179 2 115 -43 302
-146 606 -24 72 -44 143 -44 158 0 42 24 78 83 129 75 64 77 79 16 117 -97 59
-163 142 -200 252 -17 52 -20 81 -17 168 2 58 7 110 11 117 10 16 59 7 124
-23z m-1595 -102 c43 -12 90 -28 105 -35 l27 -15 -39 -39 c-51 -51 -115 -74
-291 -108 -76 -15 -220 -53 -319 -85 -235 -76 -330 -94 -460 -86 -55 3 -122
12 -150 19 l-50 13 0 109 0 109 60 18 c113 34 371 88 516 108 195 26 486 22
601 -8z m488 -90 c0 -20 -75 -131 -118 -175 -67 -69 -150 -121 -369 -232 -106
-53 -220 -114 -253 -136 -63 -40 -160 -125 -160 -140 0 -14 70 -31 103 -23 17
3 83 33 144 65 117 61 138 67 192 48 32 -11 33 -12 26 -63 -14 -99 -45 -198
-94 -295 -31 -62 -46 -103 -41 -112 5 -7 40 -16 82 -20 51 -6 77 -13 86 -26 9
-13 12 -66 10 -211 l-3 -194 -62 -23 c-98 -37 -193 -88 -406 -216 -321 -195
-413 -229 -642 -236 -140 -4 -165 -2 -360 32 -355 62 -455 75 -602 77 -164 3
-154 -7 -102 108 78 170 222 282 460 358 115 37 241 63 453 93 133 18 164 20
190 10 183 -75 279 -94 456 -95 163 -1 218 12 283 65 43 36 47 62 14 110 -48
71 -123 102 -295 119 -205 21 -270 31 -316 46 -25 9 -46 20 -46 24 0 13 51 46
91 59 20 7 115 16 210 21 96 5 192 14 213 20 42 13 101 64 92 79 -4 5 -39 17
-79 26 -63 15 -112 16 -404 10 -234 -5 -351 -4 -400 4 -134 23 -221 98 -231
200 l-4 50 38 10 c58 15 276 65 484 111 343 76 549 129 718 186 114 38 164 61
299 141 114 66 181 98 253 117 64 17 90 19 90 8z m2476 -53 c58 -36 114 -108
131 -171 l16 -58 61 0 c87 -1 155 -32 272 -127 111 -90 144 -109 203 -119 23
-4 41 -10 41 -14 0 -17 -48 -76 -78 -97 -62 -41 -128 -47 -322 -29 -252 24
-260 26 -260 45 0 9 -23 95 -51 191 -44 151 -52 190 -56 288 -3 61 -2 112 2
112 4 0 23 -9 41 -21z m1340 -15 c25 -15 84 -70 132 -123 139 -154 198 -208
259 -238 52 -25 68 -28 153 -28 83 1 104 5 166 31 83 36 155 82 244 158 60 51
66 54 82 39 30 -27 31 -73 4 -184 -14 -57 -26 -116 -26 -131 0 -24 -4 -27 -47
-33 -118 -17 -220 -52 -413 -143 -107 -50 -249 -102 -280 -102 -36 0 -133
-383 -156 -623 -4 -37 -10 -67 -14 -67 -4 0 -37 31 -74 70 -175 186 -245 506
-206 940 11 119 56 429 67 456 8 21 50 12 109 -22z m-2970 -160 c53 -82 82
-184 99 -353 l7 -64 -61 5 c-47 3 -67 10 -84 27 -21 21 -22 29 -22 229 0 114
-4 216 -9 227 l-9 20 23 -20 c13 -11 38 -43 56 -71z m3520 -644 c16 -5 48 -14
70 -20 40 -10 42 -12 72 -93 104 -279 108 -477 11 -569 -22 -21 -45 -35 -53
-32 -24 9 -36 62 -36 160 0 101 -10 124 -55 124 -33 0 -62 -41 -85 -124 -28
-99 -47 -132 -85 -150 -47 -23 -57 -20 -84 20 -60 88 -78 238 -45 373 19 77
79 218 117 279 27 42 28 42 86 42 32 0 71 -4 87 -10z m540 -26 c47 -33 57 -44
94 -116 59 -113 82 -294 57 -433 -33 -177 -66 -178 -86 -4 -10 94 -24 122 -54
113 -39 -12 -57 -36 -78 -108 -22 -77 -54 -116 -94 -116 -50 0 -53 6 -37 66
18 64 11 127 -32 288 -16 60 -26 125 -26 166 0 67 1 68 41 105 78 70 149 83
215 39z m-2381 -98 c28 -13 69 -38 93 -55 l42 -31 0 -163 c0 -275 -22 -405
-80 -486 -27 -36 -33 -40 -51 -31 -39 22 -59 70 -59 145 0 60 17 168 35 225 7
23 -24 31 -71 19 -48 -14 -69 -52 -89 -166 -19 -103 -44 -145 -96 -157 -24 -5
-28 -1 -42 37 -44 119 -62 255 -47 372 33 267 174 378 365 291z m-536 -5 c25
-35 37 -66 63 -161 16 -62 21 -118 25 -322 l5 -248 -43 0 c-23 0 -62 9 -86 21
-71 34 -100 103 -129 302 -4 34 -7 37 -37 37 -18 0 -52 -9 -76 -20 -37 -17
-42 -23 -37 -43 3 -12 6 -29 6 -37 0 -9 23 -51 50 -95 54 -86 62 -124 35 -175
-13 -25 -22 -30 -51 -30 -110 0 -184 100 -215 289 -34 212 127 432 364 496 81
21 103 19 126 -14z m-3185 -166 c134 -33 241 -55 285 -57 81 -3 90 -18 34 -51
-44 -25 -126 -24 -283 3 -138 24 -236 23 -287 -3 -27 -14 -32 -15 -37 -2 -4
11 -23 15 -76 15 -64 0 -70 2 -70 20 0 48 53 110 105 123 56 14 129 3 329 -48z
m6545 32 c24 -12 26 -17 23 -67 -7 -134 -70 -286 -156 -374 -49 -50 -49 -50
-58 -26 -6 16 -5 98 2 223 7 109 9 209 6 223 -4 14 -4 30 0 36 9 14 146 3 183
-15z m-2418 -102 c56 -126 78 -378 40 -460 -18 -41 -47 -72 -57 -62 -3 3 -1
29 5 57 19 87 15 133 -15 161 l-26 24 -19 -23 c-35 -44 -47 -120 -30 -195 l9
-38 -31 6 c-40 8 -78 35 -95 66 -20 37 -8 115 43 288 25 85 45 170 45 188 l0
33 56 0 55 0 20 -45z"/>
<path d="M9974 6838 c16 -73 25 -162 36 -333 6 -99 18 -231 26 -292 14 -108
56 -267 73 -277 9 -6 61 104 84 179 40 129 52 210 52 355 0 158 -19 249 -70
351 l-25 49 -91 0 -91 0 6 -32z"/>
<path d="M7527 6445 c-86 -30 -155 -74 -214 -139 -44 -48 -110 -153 -101 -161
1 -2 54 22 116 52 123 60 205 126 248 199 40 68 32 76 -49 49z"/>
<path d="M7544 6189 c-10 -12 -61 -46 -112 -76 -119 -70 -159 -105 -173 -152
-9 -30 -8 -44 5 -75 l16 -37 37 29 c21 16 82 59 135 95 145 100 183 157 142
215 -19 27 -26 27 -50 1z"/>
<path d="M8204 6003 c-30 -47 -30 -113 0 -178 30 -67 144 -185 248 -259 64
-45 69 -47 106 -36 53 14 85 41 133 111 l40 59 -34 29 c-18 16 -56 72 -85 123
-70 126 -126 178 -193 178 -18 0 -19 -5 -13 -37 9 -52 25 -81 85 -155 64 -78
84 -121 69 -148 -8 -15 -15 -18 -28 -11 -32 18 -80 76 -144 176 -56 87 -136
175 -159 175 -4 0 -15 -12 -25 -27z"/>
<path d="M7452 5803 c-134 -89 -161 -123 -169 -212 -3 -34 -2 -61 3 -61 22 0
202 126 254 178 66 66 81 108 56 147 -9 14 -20 25 -24 24 -4 0 -58 -34 -120
-76z"/>
<path d="M8150 5629 c0 -99 49 -173 134 -202 44 -15 46 -15 46 3 0 10 -9 47
-20 82 -22 71 -61 117 -122 143 l-38 15 0 -41z"/>
<path d="M11755 5435 c-33 -22 -105 -58 -160 -79 -55 -22 -135 -57 -177 -79
-76 -38 -144 -99 -133 -118 9 -13 92 -11 152 5 156 42 328 165 370 264 8 18
13 37 11 41 -2 3 -30 -12 -63 -34z"/>
<path d="M7388 5324 c-44 -66 -50 -120 -19 -148 19 -17 21 -16 55 36 48 72 54
107 24 142 l-23 27 -37 -57z"/>
<path d="M8010 5220 c0 -28 34 -72 69 -90 21 -10 79 -29 127 -41 111 -27 147
-45 224 -111 99 -84 159 -126 191 -133 39 -9 57 -34 143 -204 95 -186 157
-277 220 -318 44 -30 106 -45 106 -25 0 4 -26 60 -58 124 -214 426 -506 679
-907 783 -110 28 -115 29 -115 15z"/>
<path d="M10655 4806 c-66 -30 -113 -80 -129 -136 -7 -25 -12 -47 -10 -49 2
-2 24 2 49 9 88 25 144 84 161 169 8 38 -3 39 -71 7z"/>
<path d="M8563 4575 c-16 -33 -16 -36 2 -55 14 -15 29 -20 54 -18 33 3 36 6
34 32 -2 31 -38 76 -60 76 -7 0 -21 -16 -30 -35z"/>
<path d="M8625 4107 c-1 -40 -3 -119 -5 -177 -5 -122 11 -170 75 -235 52 -51
116 -79 282 -120 145 -36 249 -70 258 -85 3 -5 -16 -21 -42 -36 -66 -37 -93
-64 -93 -89 0 -21 3 -21 59 -14 156 22 251 88 251 176 0 42 -51 140 -106 207
-140 167 -485 398 -654 439 -25 6 -25 6 -25 -66z m231 -132 c11 -17 18 -56 22
-115 6 -109 6 -109 144 -86 52 9 105 13 120 8 26 -7 26 -7 13 -47 -30 -85
-109 -120 -207 -91 -140 41 -244 189 -223 316 l7 40 54 0 c46 0 56 -3 70 -25z"/>
<path d="M10652 4164 c-5 -9 -46 -53 -91 -99 -90 -91 -100 -115 -47 -115 94 0
219 108 202 175 -3 12 -17 30 -30 39 -23 15 -26 15 -34 0z"/>
<path d="M9494 3806 c-3 -7 -4 -33 -2 -57 3 -37 7 -45 26 -47 13 -2 30 2 38 8
17 15 19 81 2 98 -16 16 -57 15 -64 -2z"/>
<path d="M9399 1743 c-15 -23 -24 -57 -27 -92 -3 -48 0 -61 22 -90 l25 -34 7
29 c4 16 20 56 36 89 35 74 35 88 2 114 -35 28 -39 27 -65 -16z"/>
<path d="M9550 1611 c-19 -37 -12 -89 18 -122 16 -18 34 -29 40 -25 17 10 35
81 28 109 -13 53 -65 76 -86 38z"/>
<path d="M11001 2719 c474 -229 803 -645 925 -1171 36 -154 43 -167 43 -87 2
191 -47 432 -123 601 -74 166 -139 260 -266 388 -122 123 -215 189 -343 243
-74 31 -227 67 -286 67 -32 0 -27 -4 50 -41z"/>
</g>
</svg>
